<svg width="32" height="32" viewBox="0 0 32 32" fill="none" xmlns="http://www.w3.org/2000/svg">
<path d="M16.0434 27C14.1493 27 12.6086 25.4724 12.6086 23.5942C12.6086 23.2182 12.9164 22.9131 13.2956 22.9131C13.6748 22.9131 13.9826 23.2182 13.9826 23.5942C13.9826 24.7214 14.9067 25.6377 16.0434 25.6377C17.18 25.6377 18.1043 24.7214 18.1043 23.5942C18.1043 23.2182 18.412 22.9131 18.7912 22.9131C19.1704 22.9131 19.4782 23.2182 19.4782 23.5942C19.4782 25.4724 17.9376 27 16.0434 27Z" fill="#2E3034" stroke="#2E3034" stroke-width="0.3"/>
<path d="M23.6196 24.2175H8.55447C7.67326 24.2175 6.95654 23.5008 6.95654 22.6197C6.95654 22.1521 7.16017 21.7094 7.51543 21.4053C8.90405 20.232 9.69566 18.5266 9.69566 16.7197V14.174C9.69566 10.6497 12.5627 7.78271 16.0871 7.78271C19.6113 7.78271 22.4783 10.6497 22.4783 14.174V16.7197C22.4783 18.5266 23.2699 20.232 24.6495 21.399C25.0138 21.7094 25.2174 22.1521 25.2174 22.6197C25.2174 23.5008 24.5007 24.2175 23.6196 24.2175ZM16.0871 9.15228C13.3177 9.15228 11.0652 11.4047 11.0652 14.174V16.7197C11.0652 18.93 10.0966 21.0173 8.40836 22.4444C8.37643 22.4718 8.3261 22.5284 8.3261 22.6197C8.3261 22.7438 8.43026 22.8479 8.55447 22.8479H23.6196C23.7437 22.8479 23.8478 22.7438 23.8478 22.6197C23.8478 22.5284 23.7977 22.4718 23.7674 22.4462C22.0774 21.0173 21.1087 18.93 21.1087 16.7197V14.174C21.1087 11.4047 18.8563 9.15228 16.0871 9.15228Z" fill="#2E3034" stroke="#2E3034" stroke-width="0.3"/>
<path d="M16.087 9.08696C15.703 9.08696 15.3914 8.7818 15.3914 8.4058V5.68116C15.3914 5.30516 15.703 5 16.087 5C16.471 5 16.7827 5.30516 16.7827 5.68116V8.4058C16.7827 8.7818 16.471 9.08696 16.087 9.08696Z" fill="#2E3034" stroke="#2E3034" stroke-width="0.3"/>
</svg>
