<svg width="18" height="18" viewBox="0 0 18 18" fill="none" xmlns="http://www.w3.org/2000/svg">
<path d="M9 18C13.9706 18 18 13.9706 18 9C18 4.02944 13.9706 0 9 0C4.02944 0 0 4.02944 0 9C0 13.9706 4.02944 18 9 18Z" fill="#FFD857"/>
<path fill-rule="evenodd" clip-rule="evenodd" d="M5.70263 4.66663C6.13945 4.59491 6.55257 4.88563 6.62537 5.31597L7.36965 9.71547L8.30161 7.51188C8.42614 7.21747 8.71808 7.02575 9.04178 7.02575C9.36548 7.02575 9.65743 7.21747 9.78196 7.51188L10.7139 9.71547L11.4582 5.31597C11.531 4.88563 11.9441 4.59491 12.3809 4.66663C12.8178 4.73835 13.1128 5.14536 13.04 5.57571L12.6611 7.8157H13.8528C14.2956 7.8157 14.6546 8.16936 14.6546 8.60566C14.6546 9.04195 14.2956 9.39561 13.8528 9.39561H12.3938L11.8373 12.6853C11.7785 13.0327 11.4934 13.2998 11.1383 13.3402C10.783 13.3805 10.4437 13.1844 10.3062 12.8593L9.04178 9.86959L7.77737 12.8593C7.63986 13.1844 7.30049 13.3805 6.94534 13.3402C6.59019 13.2998 6.30506 13.0327 6.24628 12.6853L5.68975 9.39561H4.23079C3.78795 9.39561 3.42896 9.04195 3.42896 8.60566C3.42896 8.16936 3.78795 7.8157 4.23079 7.8157H5.42248L5.04353 5.57571C4.97073 5.14536 5.26582 4.73835 5.70263 4.66663Z" fill="#B17118"/>
</svg>
