<svg width="50" height="50" viewBox="0 0 50 50" fill="none" xmlns="http://www.w3.org/2000/svg">
<circle cx="25" cy="25" r="25" fill="url(#paint0_linear_339_732)"/>
<circle cx="25" cy="25" r="22.5" stroke="white"/>
<path d="M29.2376 26.8466C28.3865 24.0203 26.22 22.9077 22.7962 22.576C22.6753 22.5643 22.5615 22.5139 22.4715 22.4328C22.0936 22.0923 21.5284 21.8838 20.6833 21.8177C20.5937 21.8107 20.5209 21.7426 20.5087 21.654L20.36 20.5705C20.3483 20.4855 20.3954 20.403 20.4751 20.3701C20.9711 20.1653 21.3044 19.6498 21.2287 19.0677C21.1563 18.5121 20.7015 18.0694 20.1412 18.0078C19.3934 17.9255 18.7604 18.5053 18.7604 19.2321C18.7604 19.7447 19.0754 20.1839 19.5233 20.3694C19.6034 20.4027 19.6514 20.4849 19.6396 20.5704L19.4907 21.6539C19.4785 21.7424 19.4056 21.8106 19.3161 21.8176C18.4713 21.8838 17.9062 22.0922 17.5284 22.4326C17.4385 22.5137 17.3246 22.5641 17.2037 22.5758C13.7799 22.9075 11.6134 24.02 10.7622 26.8463C10.717 26.9966 10.6008 27.1143 10.4512 27.1645C9.45748 27.4982 9 28.2844 9 30.1321C9 31.9799 9.45748 32.7661 10.4512 33.0996C10.6008 33.1498 10.717 33.2674 10.7622 33.4178C11.632 36.3062 13.8756 37.4047 17.4312 37.7091L17.3918 37.706C17.5694 37.7202 17.7176 37.8705 17.7177 38.0414V39.7108C17.7177 39.9111 17.9177 40.0508 18.1072 39.9823C19.3135 39.5467 23.0808 38.1749 25.9619 36.9996L25.9608 36.9993C27.5907 36.3521 28.6881 35.2417 29.2376 33.4174C29.2828 33.2673 29.3989 33.1498 29.5482 33.0997C30.5423 32.7662 30.9999 31.9801 30.9999 30.132C30.9999 28.2842 30.5424 27.4981 29.5485 27.1645C29.399 27.1144 29.2829 26.9967 29.2377 26.8465L29.2376 26.8466Z" fill="white"/>
<path d="M20.0001 35.5034C17.0152 35.5034 15.1472 35.1702 14.1214 34.4546C13.6666 34.1374 13.347 33.7209 13.1153 33.1441C12.8176 32.403 12.6667 31.3896 12.6667 30.1321C12.6667 28.8746 12.8176 27.8612 13.1153 27.1201C13.3469 26.5432 13.6666 26.1268 14.1214 25.8096C15.1472 25.094 17.0152 24.7607 20.0001 24.7607C22.9849 24.7607 24.8529 25.094 25.8787 25.8096C26.3334 26.1268 26.6531 26.5432 26.8849 27.1201C27.1825 27.8612 27.3334 28.8746 27.3334 30.1321C27.3334 31.3896 27.1825 32.403 26.8849 33.1441C26.6532 33.7209 26.3335 34.1374 25.8787 34.4546C24.8529 35.1702 22.9849 35.5034 20.0001 35.5034Z" fill="#FF7512"/>
<path d="M16.7774 28.7083C16.0029 28.7083 15.8372 29.4119 15.8372 30.1322C15.8372 30.8525 16.003 31.5561 16.7774 31.5561C17.5519 31.5561 17.7177 30.8525 17.7177 30.1322C17.7177 29.4119 17.5519 28.7083 16.7774 28.7083Z" fill="white"/>
<path d="M23.2223 28.7083C22.4477 28.7083 22.282 29.4119 22.282 30.1322C22.282 30.8525 22.4478 31.5561 23.2223 31.5561C23.9967 31.5561 24.1625 30.8525 24.1625 30.1322C24.1625 29.4119 23.9967 28.7083 23.2223 28.7083Z" fill="white"/>
<path fill-rule="evenodd" clip-rule="evenodd" d="M24 13C24 11.8954 24.8954 11 26 11H39C40.1046 11 41 11.8954 41 13V18.35C41 19.4546 40.1046 20.35 39 20.35H29.95L28.2571 22.0429C27.6271 22.6729 26.55 22.2267 26.55 21.3358V20.35H26C24.8954 20.35 24 19.4546 24 18.35V13ZM32.925 16.95C33.6292 16.95 34.2 16.3791 34.2 15.675C34.2 14.9708 33.6292 14.4 32.925 14.4C32.2208 14.4 31.65 14.9708 31.65 15.675C31.65 16.3791 32.2208 16.95 32.925 16.95ZM28.675 16.95C29.3792 16.95 29.95 16.3792 29.95 15.675C29.95 14.9708 29.3792 14.4 28.675 14.4C27.9708 14.4 27.4 14.9708 27.4 15.675C27.4 16.3792 27.9708 16.95 28.675 16.95ZM38.45 15.675C38.45 16.3791 37.8792 16.95 37.175 16.95C36.4708 16.95 35.9 16.3791 35.9 15.675C35.9 14.9708 36.4708 14.4 37.175 14.4C37.8792 14.4 38.45 14.9708 38.45 15.675Z" fill="white"/>
<defs>
<linearGradient id="paint0_linear_339_732" x1="25" y1="0" x2="25" y2="50" gradientUnits="userSpaceOnUse">
<stop stop-color="#FFC694"/>
<stop offset="1" stop-color="#FF7700"/>
</linearGradient>
</defs>
</svg>
