<svg width="32" height="32" viewBox="0 0 32 32" fill="none" xmlns="http://www.w3.org/2000/svg">
<path d="M14.6272 13.4741H17.3743C20.0978 13.4742 22.3333 15.7355 22.3333 18.5581V23.3931H9.66626V18.5581C9.66626 15.7355 11.9023 13.4741 14.6272 13.4741Z" stroke="#333333" stroke-width="1.6"/>
<path d="M13.0951 18.4264C12.7867 18.4264 12.5366 18.1752 12.5366 17.8668C12.5366 17.5584 12.7879 17.3071 13.0951 17.3071C13.4023 17.3071 13.6547 17.5584 13.6547 17.8668C13.6547 18.1752 13.4035 18.4264 13.0951 18.4264Z" fill="#333333"/>
<path d="M13.0949 17.7099C13.1818 17.7099 13.2521 17.7802 13.2521 17.8671C13.2521 17.954 13.1818 18.0231 13.0949 18.0231C13.008 18.0231 12.9389 17.9528 12.9389 17.8671C12.9389 17.7814 13.0092 17.7099 13.0949 17.7099ZM13.0949 16.9038C12.5638 16.9038 12.1328 17.3348 12.1328 17.8671C12.1328 18.3993 12.5627 18.8292 13.0949 18.8292C13.6271 18.8292 14.0582 18.3982 14.0582 17.8671C14.0582 17.336 13.626 16.9038 13.0949 16.9038Z" fill="#333333"/>
<path d="M19.362 16.9038L17.5547 17.8075L19.362 18.7111" stroke="#333333" stroke-linecap="round" stroke-linejoin="round"/>
<path d="M13.9402 20.5186C15.4201 21.159 16.216 21.176 17.5548 20.5186" stroke="#333333" stroke-linecap="round" stroke-linejoin="round"/>
<path d="M6.90894 16.3695C7.62813 12.8034 10.7383 10.541 14.4557 10.541H17.3598C20.9427 10.541 23.9623 12.614 24.8184 15.9909" stroke="#333333" stroke-width="1.6" stroke-linecap="round" stroke-linejoin="round"/>
<path d="M19.4006 25.3486L19.512 25.3564C19.7615 25.3937 19.9462 25.552 20.0559 25.707C20.1842 25.8884 20.2521 26.1153 20.2522 26.3447C20.2522 26.5742 20.1845 26.8018 20.0569 26.9834C19.9326 27.1602 19.7091 27.3437 19.4006 27.3438H16.4739C16.1667 27.3438 15.9428 27.1614 15.8176 26.9844C15.6893 26.8028 15.6213 26.5751 15.6213 26.3447C15.6214 26.1151 15.6886 25.8879 15.8176 25.7061C15.9443 25.5276 16.1688 25.3486 16.4739 25.3486H19.4006Z" fill="#333333" stroke="#333333"/>
<path d="M25.0256 22.4062C25.0256 24.6984 23.6884 26.5559 21.3963 26.5559C20.8855 26.5559 20.3973 26.463 19.946 26.2951" stroke="#333333" stroke-width="1.62" stroke-linecap="round" stroke-linejoin="round"/>
<path d="M24.9624 23.3696C26.6413 23.3696 27.9999 22.0098 27.9999 20.3333V19.1188C27.9999 17.4411 26.6401 16.0801 24.9624 16.0801V23.3696Z" stroke="#333333" stroke-width="1.6" stroke-miterlimit="10"/>
<path d="M7.03751 23.3696C5.35979 23.3696 4 22.0098 4 20.3333V19.1188C4 17.4411 5.35979 16.0801 7.03751 16.0801V23.3696Z" stroke="#333333" stroke-width="1.6" stroke-miterlimit="10"/>
<path d="M15.5569 10.5254V6.47217" stroke="#333333" stroke-width="1.6" stroke-linecap="round" stroke-linejoin="round"/>
<path d="M15.5574 4.35645C16.6968 4.35662 17.6208 5.28048 17.6208 6.41992C17.6207 7.55921 16.6967 8.48322 15.5574 8.4834C14.4179 8.4834 13.4941 7.55932 13.4939 6.41992C13.4939 5.28037 14.4178 4.35645 15.5574 4.35645Z" fill="white" stroke="#333333" stroke-width="1.6" stroke-linecap="round" stroke-linejoin="round"/>
</svg>
