<svg width="58" height="58" viewBox="0 0 58 58" fill="none" xmlns="http://www.w3.org/2000/svg">
<g filter="url(#filter0_d_339_608)">
<circle cx="29" cy="25" r="25" fill="url(#paint0_linear_339_608)"/>
<circle cx="29" cy="25" r="22.5" stroke="white"/>
<path d="M33.2376 26.8466C32.3865 24.0203 30.22 22.9077 26.7962 22.576C26.6753 22.5643 26.5615 22.5139 26.4715 22.4328C26.0936 22.0923 25.5284 21.8838 24.6833 21.8177C24.5937 21.8107 24.5209 21.7426 24.5087 21.654L24.36 20.5705C24.3483 20.4855 24.3954 20.403 24.4751 20.3701C24.9711 20.1653 25.3044 19.6498 25.2287 19.0677C25.1563 18.5121 24.7015 18.0694 24.1412 18.0078C23.3934 17.9255 22.7604 18.5053 22.7604 19.2321C22.7604 19.7447 23.0754 20.1839 23.5233 20.3694C23.6034 20.4027 23.6514 20.4849 23.6396 20.5704L23.4907 21.6539C23.4785 21.7424 23.4056 21.8106 23.3161 21.8176C22.4713 21.8838 21.9062 22.0922 21.5284 22.4326C21.4385 22.5137 21.3246 22.5641 21.2037 22.5758C17.7799 22.9075 15.6134 24.02 14.7622 26.8463C14.717 26.9966 14.6008 27.1143 14.4512 27.1645C13.4575 27.4982 13 28.2844 13 30.1321C13 31.9799 13.4575 32.7661 14.4512 33.0996C14.6008 33.1498 14.717 33.2674 14.7622 33.4178C15.632 36.3062 17.8756 37.4047 21.4312 37.7091L21.3918 37.706C21.5694 37.7202 21.7176 37.8705 21.7177 38.0414V39.7108C21.7177 39.9111 21.9177 40.0508 22.1072 39.9823C23.3135 39.5467 27.0808 38.1749 29.9619 36.9996L29.9608 36.9993C31.5907 36.3521 32.6881 35.2417 33.2376 33.4174C33.2828 33.2673 33.3989 33.1498 33.5482 33.0997C34.5423 32.7662 34.9999 31.9801 34.9999 30.132C34.9999 28.2842 34.5424 27.4981 33.5485 27.1645C33.399 27.1144 33.2829 26.9967 33.2377 26.8465L33.2376 26.8466Z" fill="white"/>
<path d="M24.0001 35.5034C21.0152 35.5034 19.1472 35.1702 18.1214 34.4546C17.6666 34.1374 17.347 33.7209 17.1153 33.1441C16.8176 32.403 16.6667 31.3896 16.6667 30.1321C16.6667 28.8746 16.8176 27.8612 17.1153 27.1201C17.3469 26.5432 17.6666 26.1268 18.1214 25.8096C19.1472 25.094 21.0152 24.7607 24.0001 24.7607C26.9849 24.7607 28.8529 25.094 29.8787 25.8096C30.3334 26.1268 30.6531 26.5432 30.8849 27.1201C31.1825 27.8612 31.3334 28.8746 31.3334 30.1321C31.3334 31.3896 31.1825 32.403 30.8849 33.1441C30.6532 33.7209 30.3335 34.1374 29.8787 34.4546C28.8529 35.1702 26.9849 35.5034 24.0001 35.5034Z" fill="#FF7512"/>
<path d="M20.7774 28.7083C20.0029 28.7083 19.8372 29.4119 19.8372 30.1322C19.8372 30.8525 20.003 31.5561 20.7774 31.5561C21.5519 31.5561 21.7177 30.8525 21.7177 30.1322C21.7177 29.4119 21.5519 28.7083 20.7774 28.7083Z" fill="white"/>
<path d="M27.2223 28.7083C26.4477 28.7083 26.282 29.4119 26.282 30.1322C26.282 30.8525 26.4478 31.5561 27.2223 31.5561C27.9967 31.5561 28.1625 30.8525 28.1625 30.1322C28.1625 29.4119 27.9967 28.7083 27.2223 28.7083Z" fill="white"/>
<path fill-rule="evenodd" clip-rule="evenodd" d="M28 13C28 11.8954 28.8954 11 30 11H43C44.1046 11 45 11.8954 45 13V18.35C45 19.4546 44.1046 20.35 43 20.35H33.95L32.2571 22.0429C31.6271 22.6729 30.55 22.2267 30.55 21.3358V20.35H30C28.8954 20.35 28 19.4546 28 18.35V13ZM36.925 16.95C37.6292 16.95 38.2 16.3791 38.2 15.675C38.2 14.9708 37.6292 14.4 36.925 14.4C36.2208 14.4 35.65 14.9708 35.65 15.675C35.65 16.3791 36.2208 16.95 36.925 16.95ZM32.675 16.95C33.3792 16.95 33.95 16.3792 33.95 15.675C33.95 14.9708 33.3792 14.4 32.675 14.4C31.9708 14.4 31.4 14.9708 31.4 15.675C31.4 16.3792 31.9708 16.95 32.675 16.95ZM42.45 15.675C42.45 16.3791 41.8792 16.95 41.175 16.95C40.4708 16.95 39.9 16.3791 39.9 15.675C39.9 14.9708 40.4708 14.4 41.175 14.4C41.8792 14.4 42.45 14.9708 42.45 15.675Z" fill="white"/>
</g>
<defs>
<filter id="filter0_d_339_608" x="0" y="0" width="58" height="58" filterUnits="userSpaceOnUse" color-interpolation-filters="sRGB">
<feFlood flood-opacity="0" result="BackgroundImageFix"/>
<feColorMatrix in="SourceAlpha" type="matrix" values="0 0 0 0 0 0 0 0 0 0 0 0 0 0 0 0 0 0 127 0" result="hardAlpha"/>
<feOffset dy="4"/>
<feGaussianBlur stdDeviation="2"/>
<feComposite in2="hardAlpha" operator="out"/>
<feColorMatrix type="matrix" values="0 0 0 0 0 0 0 0 0 0 0 0 0 0 0 0 0 0 0.25 0"/>
<feBlend mode="normal" in2="BackgroundImageFix" result="effect1_dropShadow_339_608"/>
<feBlend mode="normal" in="SourceGraphic" in2="effect1_dropShadow_339_608" result="shape"/>
</filter>
<linearGradient id="paint0_linear_339_608" x1="29" y1="0" x2="29" y2="50" gradientUnits="userSpaceOnUse">
<stop stop-color="#FFC694"/>
<stop offset="1" stop-color="#FF7700"/>
</linearGradient>
</defs>
</svg>
