<svg width="18" height="18" viewBox="0 0 18 18" fill="none" xmlns="http://www.w3.org/2000/svg">
<path d="M11.3119 14.0498C10.4292 14.3756 9.3084 14.7886 7.89064 15.3152C5.46951 14.9765 2.92527 14.1869 1.82534 12.3747C2.22604 11.2932 2.57525 10.3455 2.88423 9.5092C4.95696 11.9093 8.5786 13.4336 11.3119 14.0498ZM12.0152 5.95494C12.0152 5.95494 7.35662 1.34181 5.38904 3.09267C5.12512 3.3572 5.20478 3.19912 3.37103 8.18734C5.32628 11.0157 10.2667 12.9909 13.7081 13.1643C14.7372 12.7763 14.7131 12.757 14.8716 12.5973C16.3883 11.077 13.5311 7.47359 12.0152 5.95494ZM5.68113 16.137C4.28751 16.6564 2.68066 17.2581 0.81472 17.9589C0.329528 18.138 -0.140377 17.6654 0.039056 17.1815C0.50896 15.9201 0.933001 14.7797 1.31922 13.7393C2.37973 14.9603 3.9745 15.7007 5.68113 16.137Z" fill="#FF4C3C"/>
<path d="M12.4167 11.3931C13.367 11.8633 13.9021 11.8577 14.0171 11.7407C14.133 11.6254 14.141 11.0883 13.6719 10.1374C13.161 9.10184 12.2695 7.92032 11.1623 6.81057C8.99624 4.64027 7.20111 3.87329 6.50832 3.87329C6.38039 3.87329 6.29027 3.8991 6.24199 3.94749C5.93301 4.25719 6.53246 6.30731 9.09762 8.87844C10.2048 9.98819 11.3836 10.881 12.4167 11.3931Z" fill="#CE2314"/>
<path d="M14.2576 11.3681H15.3897C15.4886 11.3681 15.5684 11.2883 15.5684 11.1894V10.6531C15.5684 10.5542 15.4886 10.4744 15.3897 10.4744H14.2576C14.1587 10.4744 14.0789 10.5542 14.0789 10.6531V11.1894C14.0789 11.2883 14.1587 11.3681 14.2576 11.3681Z" fill="#F9C005"/>
<path d="M6.80986 2.72862H7.34611C7.44502 2.72862 7.52486 2.64878 7.52486 2.54987V1.41777C7.52486 1.31886 7.44502 1.23901 7.34611 1.23901H6.80986C6.71095 1.23901 6.6311 1.31886 6.6311 1.41777V2.54987C6.6311 2.64878 6.71095 2.72862 6.80986 2.72862Z" fill="#F9C005"/>
<path d="M11.067 1.36128C11.2493 1.26952 11.5181 1.22542 11.7963 1.17656C11.9596 1.14796 12.068 0.991853 12.0364 0.829188L11.928 0.244069C11.8988 0.0849781 11.7498 -0.0222738 11.5896 0.00394339L11.5815 0.00526208C11.0865 0.0858508 10.2543 0.221336 9.93611 0.857788C9.62746 1.47568 10.0273 1.95533 10.374 2.42843C9.8086 2.4481 9.15914 2.41294 8.84692 3.03679C8.49895 3.73333 9.06916 4.27436 9.34444 4.69205C9.16092 4.7844 8.89697 4.8273 8.61514 4.87676C8.45247 4.90536 8.34284 5.06206 8.37323 5.22473L8.48167 5.80985C8.51146 5.96894 8.66042 6.07619 8.8207 6.04997L8.82923 6.04859C9.32542 5.968 10.1566 5.833 10.4747 5.19613C10.7834 4.57824 10.383 4.09858 10.0368 3.62548C10.6011 3.60582 11.2511 3.64276 11.5639 3.01713C11.9137 2.31761 11.3411 1.78194 11.067 1.36128Z" fill="#FFABA3"/>
<path d="M11.1789 6.45583L11.6257 6.75375C11.7056 6.80738 11.8104 6.78771 11.8659 6.70847C12.9842 5.12173 15.1102 3.55883 17.1855 3.47661C17.2808 3.47244 17.3559 3.39795 17.3559 3.30262V2.76576C17.3559 2.66447 17.2713 2.57986 17.1694 2.58284C14.6889 2.66983 12.3443 4.47345 11.1282 6.20379C11.0704 6.28661 11.0948 6.39982 11.1789 6.45583Z" fill="#FF9575"/>
<path d="M17.7558 6.06991L17.1707 5.96147C17.0075 5.93168 16.8514 6.04012 16.8234 6.2016C16.7745 6.47986 16.7304 6.74858 16.6386 6.93091C16.218 6.65682 15.6823 6.08422 14.9828 6.43398C14.3572 6.7462 14.3941 7.39686 14.3745 7.96112C13.9014 7.61494 13.4211 7.21453 12.8038 7.52318C12.1671 7.84214 12.0318 8.6743 11.9512 9.16978L11.95 9.17724C11.9238 9.33752 12.0304 9.48649 12.1901 9.51628L12.7752 9.62472C12.9379 9.65511 13.0946 9.54607 13.1232 9.38281C13.1727 9.10097 13.2156 8.83702 13.3079 8.6535C13.7256 8.92878 14.2666 9.499 14.9632 9.15102C15.587 8.8394 15.5518 8.18933 15.5715 7.62388C16.0446 7.97066 16.5242 8.37047 17.1421 8.06182C17.7786 7.7436 17.9141 6.91144 17.9946 6.41646L17.996 6.40835C18.0222 6.24867 17.9155 6.09971 17.7558 6.06991Z" fill="#FFABA3"/>
<path d="M15.833 1.60638L16.6338 0.80557C16.7036 0.73526 16.7036 0.62205 16.6338 0.552336L16.2549 0.173379C16.1852 0.103665 16.072 0.103665 16.0023 0.173379L15.2015 0.974194C15.1317 1.04391 15.1317 1.15712 15.2015 1.22683L15.5804 1.60638C15.6501 1.6761 15.7633 1.6761 15.833 1.60638Z" fill="#F9C005"/>
</svg>
