<svg width="16" height="20" viewBox="0 0 16 20" fill="none" xmlns="http://www.w3.org/2000/svg">
<path d="M16 8C16 12.4183 12.4183 16 8 16C3.58172 16 3.43737e-09 12.4183 3.43737e-09 8C3.43737e-09 3.58172 3.58172 0 8 0C12.4183 0 16 3.58172 16 8Z" fill="#8149B1"/>
<path d="M1.03144 14.8287C1.18151 14.4534 1.46213 14.1496 1.81412 13.9548C1.94509 13.8754 2.38979 13.7166 3.12086 13.7166H12.8791C13.1897 13.7044 13.8858 13.7349 14.1859 13.9548C14.5379 14.1496 14.8185 14.4534 14.9686 14.8287L15.8836 17.1135C16.0941 17.6396 16.016 18.2291 15.6744 18.6912C15.3321 19.1533 14.7703 19.4286 14.17 19.4286H1.82999C1.2297 19.4286 0.667865 19.1533 0.325629 18.6912C-0.0159964 18.2291 -0.094093 17.6396 0.116373 17.1135L1.03144 14.8287Z" fill="#E9BFF3"/>
<path d="M7.4497 3.72556C7.69932 3.32958 8.30068 3.32958 8.5503 3.72556L9.23386 4.80988C9.32354 4.95213 9.46982 5.05359 9.63925 5.09105L10.9307 5.3766C11.4024 5.48087 11.5882 6.02686 11.2708 6.37586L10.4018 7.33155C10.2878 7.45693 10.2319 7.62109 10.247 7.7865L10.3616 9.0473C10.4035 9.50772 9.91694 9.84516 9.47118 9.66488L8.25054 9.17121C8.0904 9.10644 7.9096 9.10644 7.74946 9.17121L6.52882 9.66488C6.08306 9.84516 5.59655 9.50772 5.63841 9.0473L5.75303 7.7865C5.76807 7.62109 5.71219 7.45693 5.59818 7.33155L4.72917 6.37586C4.41182 6.02686 4.59765 5.48087 5.06928 5.3766L6.36075 5.09105C6.53018 5.05359 6.67646 4.95213 6.76614 4.80988L7.4497 3.72556Z" fill="white"/>
</svg>
