<svg width="14" height="17" viewBox="0 0 14 17" fill="none" xmlns="http://www.w3.org/2000/svg">
<circle cx="7" cy="7" r="7" fill="#8149B1"/>
<path d="M0.902512 12.9751C1.03382 12.6468 1.27936 12.3809 1.58736 12.2104C1.70195 12.141 2.09106 12.002 2.73075 12.002H11.2692C11.541 11.9913 12.15 12.018 12.4126 12.2104C12.7206 12.3809 12.9662 12.6468 13.0975 12.9751L13.8982 14.9743C14.0823 15.4346 14.014 15.9504 13.7151 16.3548C13.4156 16.7591 12.924 17 12.3988 17H1.60124C1.07599 17 0.584382 16.7591 0.284926 16.3548C-0.0139969 15.9504 -0.0823314 15.4346 0.101826 14.9743L0.902512 12.9751Z" fill="#E9BFF3"/>
<path d="M6.51848 3.25986C6.73691 2.91338 7.26309 2.91338 7.48152 3.25986L8.07963 4.20864C8.1581 4.33312 8.28609 4.42189 8.43434 4.45467L9.56438 4.70452C9.97706 4.79576 10.1397 5.2735 9.86198 5.57888L9.10159 6.41511C9.00183 6.52482 8.95294 6.66845 8.9661 6.81319L9.06639 7.91639C9.10302 8.31926 8.67732 8.61451 8.28728 8.45677L7.21923 8.0248C7.0791 7.96813 6.9209 7.96813 6.78077 8.0248L5.71272 8.45677C5.32268 8.61452 4.89698 8.31926 4.93361 7.91639L5.0339 6.81319C5.04706 6.66845 4.99817 6.52482 4.89841 6.41511L4.13802 5.57888C3.86034 5.2735 4.02294 4.79576 4.43562 4.70452L5.56566 4.45467C5.71391 4.42189 5.8419 4.33312 5.92037 4.20864L6.51848 3.25986Z" fill="white"/>
</svg>
