<svg width="36" height="36" viewBox="0 0 36 36" fill="none" xmlns="http://www.w3.org/2000/svg">
<circle cx="18" cy="18" r="18" fill="white"/>
<path d="M28.5658 16.0658C28.5658 18.0445 27.9938 19.8916 27.0057 21.4485L25.2089 21.0987H11.7913L9.99451 21.4485C9.00638 19.8916 8.43433 18.0445 8.43433 16.0658C8.43433 10.5103 12.9446 6 18.5001 6C24.0555 6 28.5658 10.5103 28.5658 16.0658Z" fill="#8149B1"/>
<path d="M8.91823 22.7318C9.12458 22.1807 9.51043 21.7344 9.99442 21.4484C10.1745 21.3318 10.786 21.0986 11.7912 21.0986H25.2088C25.6358 21.0806 26.5929 21.1255 27.0056 21.4484C27.4896 21.7344 27.8754 22.1807 28.0818 22.7318L29.34 26.087C29.6294 26.8596 29.522 27.7252 29.0523 28.4038C28.5817 29.0824 27.8092 29.4867 26.9838 29.4867H10.0162C9.19084 29.4867 8.41831 29.0824 7.94774 28.4038C7.478 27.7252 7.37062 26.8596 7.66001 26.087L8.91823 22.7318Z" fill="#E9BFF3"/>
<path d="M17.7313 10.5508C18.0367 10.0752 18.7723 10.0752 19.0777 10.5508L19.9139 11.8531C20.0236 12.0239 20.2025 12.1458 20.4098 12.1908L21.9896 12.5337C22.5665 12.659 22.7938 13.3147 22.4056 13.7339L21.3426 14.8817C21.2031 15.0323 21.1348 15.2294 21.1532 15.4281L21.2934 16.9424C21.3446 17.4953 20.7495 17.9006 20.2042 17.6841L18.711 17.0912C18.5151 17.0134 18.2939 17.0134 18.098 17.0912L16.6049 17.6841C16.0596 17.9006 15.4645 17.4953 15.5157 16.9424L15.6559 15.4281C15.6743 15.2294 15.6059 15.0323 15.4664 14.8817L14.4034 13.7339C14.0152 13.3147 14.2425 12.659 14.8195 12.5337L16.3993 12.1908C16.6065 12.1458 16.7855 12.0239 16.8952 11.8531L17.7313 10.5508Z" fill="white"/>
</svg>
