<svg width="36" height="36" viewBox="0 0 36 36" fill="none" xmlns="http://www.w3.org/2000/svg">
<circle cx="18" cy="18" r="10" stroke="#333333" stroke-width="2"/>
<path fill-rule="evenodd" clip-rule="evenodd" d="M14.074 12.5138C14.5876 12.423 15.0734 12.791 15.159 13.3357L16.0342 18.9049L17.13 16.1155C17.2765 15.7428 17.6198 15.5001 18.0004 15.5001C18.381 15.5001 18.7243 15.7428 18.8707 16.1155L19.9666 18.9049L20.8418 13.3357C20.9274 12.791 21.4132 12.423 21.9268 12.5138C22.4405 12.6046 22.7875 13.1198 22.7019 13.6645L22.2563 16.5001H23.6575C24.1783 16.5001 24.6004 16.9478 24.6004 17.5001C24.6004 18.0524 24.1783 18.5001 23.6575 18.5001H21.942L21.2876 22.6644C21.2185 23.1042 20.8832 23.4423 20.4656 23.4934C20.0479 23.5445 19.6489 23.2962 19.4872 22.8846L18.0004 19.1L16.5136 22.8846C16.3519 23.2962 15.9528 23.5445 15.5352 23.4934C15.1176 23.4423 14.7823 23.1042 14.7132 22.6644L14.0588 18.5001H12.3432C11.8225 18.5001 11.4004 18.0524 11.4004 17.5001C11.4004 16.9478 11.8225 16.5001 12.3432 16.5001H13.7445L13.2989 13.6645C13.2133 13.1198 13.5603 12.6046 14.074 12.5138Z" fill="#333333"/>
</svg>
