<svg width="36" height="36" viewBox="0 0 36 36" fill="none" xmlns="http://www.w3.org/2000/svg">
<path d="M15.0282 28.4992C15.2016 28.8002 15.5189 28.9897 15.8661 28.9996C16.2134 29.0095 16.5409 28.8385 16.7313 28.5479L18.1194 26.4286H23.4737C25.4378 26.4286 27 24.8128 27 22.8571V12.5714C27 10.6157 25.4378 9 23.4737 9H12.5263C10.5622 9 9 10.6157 9 12.5714V22.8571C9 24.8128 10.5622 26.4286 12.5263 26.4286H13.8354L15.0282 28.4992Z" stroke="#333333" stroke-width="2" stroke-linejoin="round"/>
<rect x="13" y="14" width="2" height="3" rx="1" fill="#333333"/>
<rect x="18" y="14" width="2" height="3" rx="1" fill="#333333"/>
<path d="M16.5 21C17.8807 21 19 19.6569 19 18H14C14 19.6569 15.1193 21 16.5 21Z" fill="#333333"/>
</svg>
