<svg width="36" height="36" viewBox="0 0 36 36" fill="none" xmlns="http://www.w3.org/2000/svg">
<rect x="8" y="11" width="20" height="14" rx="1" stroke="#333333" stroke-width="2"/>
<path d="M14.7071 18.7071L15.4142 18L14 16.5858L13.2929 17.2929L14.7071 18.7071ZM10.2929 20.2929C9.90237 20.6834 9.90237 21.3166 10.2929 21.7071C10.6834 22.0976 11.3166 22.0976 11.7071 21.7071L10.2929 20.2929ZM14 18L13.2929 17.2929L10.2929 20.2929L11 21L11.7071 21.7071L14.7071 18.7071L14 18Z" fill="#333333"/>
<path d="M21.2929 18.7071L20.5858 18L22 16.5858L22.7071 17.2929L21.2929 18.7071ZM25.7071 20.2929C26.0976 20.6834 26.0976 21.3166 25.7071 21.7071C25.3166 22.0976 24.6834 22.0976 24.2929 21.7071L25.7071 20.2929ZM22 18L22.7071 17.2929L25.7071 20.2929L25 21L24.2929 21.7071L21.2929 18.7071L22 18Z" fill="#333333"/>
<path d="M27 12L19.627 18.4031C18.7107 19.199 17.2893 19.199 16.373 18.4031L9 12" stroke="#333333" stroke-width="2"/>
</svg>
