<svg width="22" height="20" viewBox="0 0 22 20" fill="none" xmlns="http://www.w3.org/2000/svg">
<path fill-rule="evenodd" clip-rule="evenodd" d="M2.56434 16.8469C2.1407 16.8469 1.79688 16.4669 1.79688 15.9986C1.79688 15.5304 2.1407 15.1504 2.56434 15.1504H19.4485C19.8721 15.1504 20.2159 15.5304 20.2159 15.9986C20.2159 16.4669 19.8721 16.8469 19.4485 16.8469H2.56434ZM4.86672 19.3916C4.44308 19.3916 4.09926 19.0116 4.09926 18.5434C4.09926 18.0751 4.44308 17.6951 4.86672 17.6951H17.1461C17.5697 17.6951 17.9135 18.0751 17.9135 18.5434C17.9135 19.0116 17.5697 19.3916 17.1461 19.3916H4.86672Z" fill="#FF6872"/>
<path d="M0.826172 2.60938C0.826172 1.50481 1.7216 0.609375 2.82617 0.609375H19.1841C20.2886 0.609375 21.1841 1.50481 21.1841 2.60938V3.51765H0.826172V2.60938Z" fill="#FF6872"/>
<path d="M21.1836 12.1816C21.1836 13.2862 20.2882 14.1816 19.1836 14.1816L2.82569 14.1816C1.72112 14.1816 0.825687 13.2862 0.825688 12.1816L0.825688 3.51798L21.1836 3.51798L21.1836 12.1816Z" fill="#FFCFD2"/>
<rect x="2.76562" y="10.3027" width="6.78597" height="1.93885" rx="0.969424" fill="#FF6872"/>
</svg>
