<svg width="33" height="32" viewBox="0 0 33 32" fill="none" xmlns="http://www.w3.org/2000/svg">
<path d="M14.5868 25.6477C21.2212 25.6477 26.5995 20.3311 26.5995 13.7726C26.5995 7.21414 21.2212 1.89746 14.5868 1.89746C7.95228 1.89746 2.57397 7.21414 2.57397 13.7726C2.57397 20.3311 7.95228 25.6477 14.5868 25.6477Z" fill="white"/>
<path d="M14.5868 26.2681C7.61636 26.2681 1.94653 20.6632 1.94653 13.7727C1.94653 6.88216 7.61636 1.27881 14.5868 1.27881C21.5572 1.27881 27.227 6.88367 27.227 13.7742C27.227 20.6647 21.5572 26.2696 14.5868 26.2696V26.2681ZM14.5868 2.5163C8.30776 2.5163 3.1999 7.56565 3.1999 13.7727C3.1999 19.9797 8.30776 25.0291 14.5868 25.0291C20.8657 25.0291 25.9736 19.9797 25.9736 13.7727C25.9736 7.56565 20.8657 2.5163 14.5868 2.5163Z" fill="#333333"/>
<path d="M21.0471 20.1586C24.6149 16.6316 24.6149 10.9133 21.0471 7.38636C17.4793 3.85942 11.6947 3.85942 8.12687 7.38636C4.55904 10.9133 4.55904 16.6316 8.12687 20.1586C11.6947 23.6855 17.4793 23.6855 21.0471 20.1586Z" fill="#FBE59B"/>
<path d="M23.2855 21.8409L22.4001 22.7158L24.2423 24.5375L25.1277 23.6627L23.2855 21.8409Z" fill="#333333"/>
<path d="M24.3536 24.294L24.8813 23.7723C25.7331 22.9303 27.1168 22.9292 27.9697 23.7723L29.8596 25.6406C30.8568 26.6263 30.8568 28.2274 29.8596 29.2131C28.8624 30.1989 27.2428 30.1989 26.2456 29.2131L24.3558 27.3449C23.5039 26.5029 23.5029 25.1349 24.3558 24.2918L24.3536 24.294Z" fill="#FBE59B"/>
<path d="M28.0513 30.5715C27.2366 30.5715 26.4218 30.2644 25.8004 29.6517L22.3663 26.2569C22.1211 26.0145 22.1211 25.6231 22.3663 25.3807L25.9802 21.8067C26.2147 21.5749 26.6304 21.5749 26.8665 21.8067L30.3007 25.2015C31.5419 26.4285 31.5419 28.4247 30.3007 29.6502C29.6793 30.2629 28.8646 30.57 28.0498 30.57L28.0513 30.5715ZM23.6958 25.8188L26.6868 28.7755C27.4391 29.5192 28.6635 29.5207 29.4159 28.7755C30.1682 28.0318 30.1682 26.8214 29.4159 26.0777L26.4248 23.121L23.6958 25.8188Z" fill="#333333"/>
<path d="M10.3015 10.6919L12.6133 17.5448L14.587 11.6915L16.5607 17.5448L18.871 10.6919" fill="#FBE59B"/>
<path d="M16.5592 18.2411C16.2561 18.2411 15.9865 18.0484 15.8906 17.7638L14.5855 13.8963L13.2818 17.7638C13.1859 18.0484 12.9163 18.2411 12.6133 18.2411C12.3102 18.2411 12.0407 18.0484 11.9447 17.7638L9.63292 10.911C9.50957 10.5451 9.70907 10.1507 10.0791 10.0287C10.4477 9.9068 10.8497 10.104 10.9716 10.4698L12.6133 15.3385L13.9169 11.471C14.0128 11.1865 14.2824 10.9938 14.5855 10.9938C14.8885 10.9938 15.1581 11.1865 15.254 11.471L16.5592 15.3385L18.2009 10.4698C18.3242 10.104 18.7217 9.9068 19.0933 10.0287C19.4634 10.1507 19.6629 10.5451 19.5395 10.911L17.2277 17.7638C17.1318 18.0484 16.8622 18.2411 16.5592 18.2411Z" fill="#333333"/>
<path d="M11.4527 14.8662H9.29471C8.90484 14.8662 8.5896 14.5546 8.5896 14.1692C8.5896 13.7838 8.90637 13.4722 9.29471 13.4722H11.4527C11.8426 13.4722 12.1578 13.7838 12.1578 14.1692C12.1578 14.5546 11.841 14.8662 11.4527 14.8662Z" fill="#333333"/>
<path d="M19.8777 14.8662H17.7198C17.3299 14.8662 17.0146 14.5546 17.0146 14.1692C17.0146 13.7838 17.3314 13.4722 17.7198 13.4722H19.8777C20.2676 13.4722 20.5828 13.7838 20.5828 14.1692C20.5828 14.5546 20.2661 14.8662 19.8777 14.8662Z" fill="#333333"/>
</svg>
