<svg width="32" height="32" viewBox="0 0 32 32" fill="none" xmlns="http://www.w3.org/2000/svg">
<path d="M24.4769 13.6486V12.4776C24.4769 7.79649 20.6818 4 15.9992 4C11.3181 4 7.52161 7.79507 7.52161 12.4776V13.6486" stroke="#333333" stroke-width="1.6" stroke-linecap="round" stroke-linejoin="round"/>
<path d="M5.56713 12.9548H7.52307V21.9168H5.56713C3.59837 21.9168 2 20.3185 2 18.3497V16.5234C2 14.5546 3.59837 12.9563 5.56713 12.9563V12.9548Z" fill="#F4E39C" stroke="#333333" stroke-width="1.6" stroke-linecap="round" stroke-linejoin="round"/>
<path d="M26.4329 21.9167H24.4769V12.9547H26.4329C28.4016 12.9547 30 14.5531 30 16.5219V18.3482C30 20.317 28.4016 21.9153 26.4329 21.9153V21.9167Z" fill="#F4E39C" stroke="#333333" stroke-width="1.6" stroke-linecap="round" stroke-linejoin="round"/>
<path d="M24.4769 21.9167V22.3099C24.4769 24.9069 22.3714 27.011 19.7758 27.011H18.8285" stroke="#333333" stroke-width="1.6" stroke-linecap="round" stroke-linejoin="round"/>
<path d="M16.9438 28.8959C17.9847 28.8959 18.8285 28.0521 18.8285 27.0112C18.8285 25.9703 17.9847 25.1265 16.9438 25.1265C15.9029 25.1265 15.0591 25.9703 15.0591 27.0112C15.0591 28.0521 15.9029 28.8959 16.9438 28.8959Z" fill="white" stroke="#333333" stroke-width="1.6" stroke-linecap="round" stroke-linejoin="round"/>
</svg>
