<svg width="32" height="32" viewBox="0 0 32 32" fill="none" xmlns="http://www.w3.org/2000/svg">
<path fill-rule="evenodd" clip-rule="evenodd" d="M5.32481 5.30933H21.8868C23.7229 5.30933 25.2116 6.79803 25.2116 8.63414V19.3936C25.2116 21.2297 23.7229 22.7184 21.8868 22.7184H5.32481C3.4887 22.7184 2 21.2297 2 19.3936V8.63414C2 6.79803 3.4887 5.30933 5.32481 5.30933Z" fill="#FFE597"/>
<path fill-rule="evenodd" clip-rule="evenodd" d="M8.67179 9.28467H27.1497C28.7242 9.28467 30 10.5605 30 12.1335V23.842C30 25.4164 28.7242 26.6908 27.1497 26.6908H8.67179C7.09735 26.6908 5.82153 25.415 5.82153 23.842V12.1335C5.82153 10.559 7.09735 9.28467 8.67179 9.28467Z" fill="white" stroke="#333333" stroke-width="1.6" stroke-linecap="round" stroke-linejoin="round"/>
<path d="M5.823 14.2622L30 14.41" stroke="#333333" stroke-width="1.6" stroke-linecap="round" stroke-linejoin="round"/>
<path d="M9.25586 23.4619H12.9783" stroke="#333333" stroke-width="1.6" stroke-linecap="round" stroke-linejoin="round"/>
</svg>
