<svg width="32" height="32" viewBox="0 0 32 32" fill="none" xmlns="http://www.w3.org/2000/svg">
<path d="M26.7072 18.8345V5.045L23.9791 2L21.3194 3.96216L18.6613 2L16.0016 3.96216L13.3434 2L10.6837 3.96216L8.02555 2L5.29749 5.045V18.8345" fill="#FFE597"/>
<path d="M26.7072 27.8748V5.74423C26.7072 5.3605 26.4975 4.81209 26.2411 4.52468L24.4452 2.52058C24.1889 2.23472 23.7259 2.18656 23.4168 2.41493L21.8818 3.54749C21.5727 3.77586 21.0662 3.77586 20.7571 3.54749L19.2221 2.41493C18.913 2.18656 18.4065 2.18656 18.0974 2.41493L16.5624 3.54749C16.2533 3.77586 15.7468 3.77586 15.4376 3.54749L13.9027 2.41493C13.5936 2.18656 13.0871 2.18656 12.7779 2.41493L11.243 3.54749C10.9338 3.77586 10.4274 3.77586 10.1182 3.54749L8.5833 2.41493C8.27414 2.18656 7.81118 2.23472 7.55484 2.52058L5.75892 4.52468C5.50258 4.81054 5.29285 5.35895 5.29285 5.74423V27.8748" stroke="#333333" stroke-width="1.6" stroke-linecap="round" stroke-linejoin="round"/>
<path d="M9.97998 21.6899V25.1031" stroke="#333333" stroke-width="1.6" stroke-linecap="round" stroke-linejoin="round"/>
<path d="M12.9908 21.6899V25.1031" stroke="#333333" stroke-width="1.6" stroke-linecap="round" stroke-linejoin="round"/>
<path d="M16.0017 21.6899V25.1031" stroke="#333333" stroke-width="1.6" stroke-linecap="round" stroke-linejoin="round"/>
<path d="M19.0139 21.6899V25.1031" stroke="#333333" stroke-width="1.6" stroke-linecap="round" stroke-linejoin="round"/>
<path d="M22.0248 21.6899V25.1031" stroke="#333333" stroke-width="1.6" stroke-linecap="round" stroke-linejoin="round"/>
<path d="M26.7071 26.0537V27.8745C26.7071 29.049 25.7548 29.9998 24.5818 29.9998H7.42423C6.24973 29.9998 5.29895 29.0474 5.29895 27.8745V26.0537" fill="white"/>
<path d="M26.7071 26.0537V27.8745C26.7071 29.049 25.7548 29.9998 24.5818 29.9998H7.42423C6.24973 29.9998 5.29895 29.0474 5.29895 27.8745V26.0537" stroke="#333333" stroke-width="1.6" stroke-miterlimit="10"/>
<path d="M12.2764 9.00464L14.4312 15.4644L16.2706 9.94765L18.11 15.4644L20.2633 9.00464" fill="#FAE398"/>
<path d="M18.11 16.1233C17.8273 16.1233 17.5756 15.9415 17.4855 15.6743L16.269 12.0281L15.0541 15.6743C14.964 15.9431 14.7139 16.1233 14.4296 16.1233C14.1453 16.1233 13.8952 15.9415 13.8051 15.6743L11.6503 9.21302C11.5353 8.86812 11.7218 8.49527 12.0666 8.38186C12.41 8.26689 12.7844 8.45332 12.8978 8.79821L14.4281 13.3875L15.643 9.74123C15.7331 9.47246 15.9832 9.29225 16.2675 9.29225C16.5518 9.29225 16.8019 9.47401 16.892 9.74123L18.1085 13.3875L19.6387 8.79821C19.7537 8.45332 20.125 8.26689 20.4699 8.38186C20.8148 8.49682 20.9997 8.86968 20.8862 9.21302L18.7314 15.6743C18.6413 15.9431 18.3912 16.1233 18.1069 16.1233H18.11Z" fill="#333333"/>
<path d="M13.3498 12.9401H11.3395C10.976 12.9401 10.6824 12.6464 10.6824 12.2829C10.6824 11.9194 10.9776 11.6257 11.3395 11.6257H13.3498C13.7134 11.6257 14.007 11.9194 14.007 12.2829C14.007 12.6464 13.7118 12.9401 13.3498 12.9401Z" fill="#333333"/>
<path d="M21.2017 12.9403H19.1913C18.8278 12.9403 18.5342 12.6467 18.5342 12.2831C18.5342 11.9196 18.8294 11.626 19.1913 11.626H21.2017C21.5652 11.626 21.8588 11.9196 21.8588 12.2831C21.8588 12.6467 21.5636 12.9403 21.2017 12.9403Z" fill="#333333"/>
</svg>
