<svg width="20" height="22" viewBox="0 0 20 22" fill="none" xmlns="http://www.w3.org/2000/svg">
<path fill-rule="evenodd" clip-rule="evenodd" d="M15.1655 8.15991C15.7528 8.15991 16.3159 8.39287 16.7306 8.80846C17.146 9.22323 17.3792 9.78655 17.3792 10.3734V18.4903C17.3792 19.0772 17.146 19.6405 16.7306 20.0561C16.3159 20.4709 15.7528 20.7038 15.1655 20.7038H4.83481C4.24743 20.7038 3.68441 20.4709 3.26971 20.0561C2.85427 19.6405 2.62109 19.0772 2.62109 18.4903V10.3734C2.62109 9.78655 2.85427 9.22323 3.26971 8.80846C3.68441 8.39287 4.24743 8.15991 4.83481 8.15991V5.20859C4.83481 2.35711 7.14961 0.0429688 10.0001 0.0429688C12.8507 0.0429688 15.1655 2.35711 15.1655 5.20859V8.15991ZM13.6897 8.15991V5.20859C13.6897 3.17205 12.0368 1.51862 10.0001 1.51862C7.96352 1.51862 6.31061 3.17205 6.31061 5.20859V8.15991H13.6897ZM9.26223 14.1502V15.9075C9.26223 16.315 9.59281 16.6454 10.0001 16.6454C10.4075 16.6454 10.738 16.315 10.738 15.9075V14.1502C10.9646 13.9473 11.107 13.6526 11.107 13.3255C11.107 12.7143 10.6111 12.2184 10.0001 12.2184C9.38915 12.2184 8.89328 12.7143 8.89328 13.3255C8.89328 13.6526 9.03569 13.9473 9.26223 14.1502Z" fill="#13D05C" fill-opacity="0.53"/>
<rect x="0.609375" y="15.6951" width="18.7826" height="6.26087" rx="1" fill="#1A833D"/>
<path d="M14.0586 18.2237L14.3967 17.6227L15.2982 18.1486V17.1719H15.9744V18.1486L16.876 17.6227L17.2141 18.2237L16.3275 18.7271L17.2141 19.238L16.876 19.839L15.9744 19.3131V20.2898H15.2982V19.3131L14.3967 19.839L14.0586 19.238L14.9226 18.7271L14.0586 18.2237Z" fill="white"/>
<path d="M10.3027 18.2237L10.6408 17.6227L11.5424 18.1486V17.1719H12.2186V18.1486L13.1201 17.6227L13.4582 18.2237L12.5717 18.7271L13.4582 19.238L13.1201 19.839L12.2186 19.3131V20.2898H11.5424V19.3131L10.6408 19.839L10.3027 19.238L11.1667 18.7271L10.3027 18.2237Z" fill="white"/>
<path d="M6.54492 18.2237L6.88301 17.6227L7.78457 18.1486V17.1719H8.46075V18.1486L9.36231 17.6227L9.7004 18.2237L8.81386 18.7271L9.7004 19.238L9.36231 19.839L8.46075 19.3131V20.2898H7.78457V19.3131L6.88301 19.839L6.54492 19.238L7.40892 18.7271L6.54492 18.2237Z" fill="white"/>
<path d="M2.78906 18.2237L3.12715 17.6227L4.02871 18.1486V17.1719H4.70489V18.1486L5.60645 17.6227L5.94454 18.2237L5.058 18.7271L5.94454 19.238L5.60645 19.839L4.70489 19.3131V20.2898H4.02871V19.3131L3.12715 19.839L2.78906 19.238L3.65306 18.7271L2.78906 18.2237Z" fill="white"/>
</svg>
