<svg width="18" height="22" viewBox="0 0 18 22" fill="none" xmlns="http://www.w3.org/2000/svg">
<path d="M4.72644 12.4428C4.73979 12.3176 4.72046 12.1904 4.67124 12.0797C4.62202 11.969 4.54549 11.8806 4.45275 11.8272C4.35737 11.772 4.24952 11.7588 4.14723 11.7899C4.04493 11.8211 3.9544 11.8946 3.89076 11.9982L0.886759 16.7542C0.832236 16.8409 0.797725 16.9441 0.786882 17.053C0.776039 17.1618 0.78927 17.2723 0.825171 17.3727C0.891379 17.5593 1.04458 17.7246 1.25475 17.7246H3.82686L3.57665 20.3665C3.5633 20.4917 3.58263 20.6189 3.63185 20.7296C3.68107 20.8403 3.7576 20.9287 3.85034 20.9821C3.94572 21.0373 4.05357 21.0505 4.15587 21.0193C4.25816 20.9882 4.3487 20.9147 4.41234 20.8111L7.41595 16.0551C7.47047 15.9684 7.50498 15.8652 7.51582 15.7563C7.52667 15.6474 7.51344 15.537 7.47754 15.4366C7.44156 15.3326 7.38173 15.2439 7.3054 15.1814C7.22907 15.1188 7.13958 15.0852 7.04795 15.0847H4.47585L4.72644 12.4428Z" fill="#FFD857"/>
<path d="M0.783203 6.5329C0.783203 8.49745 2.29105 10.0895 4.15135 10.0895C6.01166 10.0895 7.5195 8.49706 7.5195 6.5329C7.5195 4.56873 4.15135 0.861328 4.15135 0.861328C4.15135 0.861328 0.783203 4.56834 0.783203 6.5329Z" fill="#6EC4F6"/>
<path fill-rule="evenodd" clip-rule="evenodd" d="M13.0716 0.826172L13.0799 0.876707C13.0841 0.891447 13.0904 0.908292 13.0945 0.923032C13.2345 1.35048 13.224 1.73792 12.9985 2.15062C12.9024 2.32539 12.7896 2.51069 12.6685 2.64545C12.633 2.68546 12.6205 2.70862 12.5829 2.75915L12.2989 3.07711C12.2633 3.1129 11.1857 4.20363 11.1105 4.31733C11.0521 4.40577 11.1252 4.35945 11.0166 4.42472C10.9518 4.46262 10.9539 4.46473 10.908 4.51526C10.7847 4.65213 10.4882 5.07326 10.4088 5.23961C10.3796 5.30067 10.3754 5.32173 10.3441 5.37858C10.1979 5.65021 10.2793 5.52176 10.2459 5.68179C10.2313 5.74707 10.2146 5.73233 10.1854 5.82076C9.9786 6.4672 10.0162 7.07362 10.1937 7.71585C10.3211 8.17698 10.7346 8.87395 11.1293 9.1919L11.8394 9.70568C11.8791 9.73095 11.9376 9.752 11.9751 9.76885C12.0629 9.81096 12.1694 9.85729 12.2592 9.88466C13.1196 10.1415 13.506 10.1479 14.3747 9.94783C14.6692 9.88045 15.1934 9.59829 15.4357 9.40247C15.8304 9.08451 15.7489 9.14347 16.0497 8.79183C16.1186 8.70971 16.1645 8.64443 16.2188 8.56021C16.4151 8.2591 16.6386 7.74743 16.6866 7.42105C16.7723 6.83779 16.8349 6.60196 16.7138 5.95763C16.6678 5.71127 16.5968 5.55124 16.5112 5.35752L16.0309 4.63529C15.9912 4.58475 15.891 4.46262 15.8304 4.44578C15.7406 4.50684 15.7761 4.51737 15.7427 4.61633C15.6591 4.8627 15.3333 5.20591 14.9846 5.1259C14.7966 5.08168 14.8196 5.03746 14.7131 4.89639C14.6128 4.76584 14.6504 4.64371 14.6003 4.48157C14.5523 4.32576 14.8071 3.79092 14.8071 3.1866C14.8071 2.83706 14.7486 2.61387 14.6421 2.3275C14.4875 1.91269 14.0615 1.44523 13.7148 1.20729C13.5832 1.11675 13.2094 0.857757 13.0737 0.826172H13.0716Z" fill="#FF7575"/>
<path d="M13.6016 20.5705C16.0309 20.5705 18.0001 18.6012 18.0001 16.1719C18.0001 13.7427 16.0309 11.7734 13.6016 11.7734C11.1724 11.7734 9.20312 13.7427 9.20312 16.1719C9.20312 18.6012 11.1724 20.5705 13.6016 20.5705Z" fill="#666666"/>
<path fill-rule="evenodd" clip-rule="evenodd" d="M11.9901 14.0541C12.2036 14.0191 12.4055 14.1612 12.4411 14.3715L12.8048 16.5216L13.2603 15.4447C13.3211 15.3008 13.4638 15.2071 13.622 15.2071C13.7802 15.2071 13.9229 15.3008 13.9838 15.4447L14.4392 16.5216L14.803 14.3715C14.8386 14.1612 15.0405 14.0191 15.2539 14.0541C15.4674 14.0892 15.6116 14.2881 15.5761 14.4984L15.3909 15.5932H15.9733C16.1897 15.5932 16.3651 15.766 16.3651 15.9792C16.3651 16.1925 16.1897 16.3653 15.9733 16.3653H15.2603L14.9883 17.9731C14.9595 18.1428 14.8202 18.2734 14.6466 18.2931C14.473 18.3128 14.3072 18.217 14.24 18.0581L13.622 16.5969L13.0041 18.0581C12.9369 18.217 12.771 18.3128 12.5974 18.2931C12.4239 18.2734 12.2845 18.1428 12.2558 17.9731L11.9838 16.3653H11.2708C11.0544 16.3653 10.8789 16.1925 10.8789 15.9792C10.8789 15.766 11.0544 15.5932 11.2708 15.5932H11.8532L11.668 14.4984C11.6324 14.2881 11.7766 14.0892 11.9901 14.0541Z" fill="white"/>
</svg>
