<svg width="32" height="32" viewBox="0 0 32 32" fill="none" xmlns="http://www.w3.org/2000/svg">
<path d="M7 9C7 8.44772 7.40294 8 7.9 8H24.1C24.5971 8 25 8.44772 25 9C25 9.55228 24.5971 10 24.1 10H7.9C7.40294 10 7 9.55228 7 9Z" fill="#222222"/>
<path d="M7 16C7 15.4477 7.40294 15 7.9 15H24.1C24.5971 15 25 15.4477 25 16C25 16.5523 24.5971 17 24.1 17H7.9C7.40294 17 7 16.5523 7 16Z" fill="#222222"/>
<path d="M7 23C7 22.4477 7.40294 22 7.9 22H24.1C24.5971 22 25 22.4477 25 23C25 23.5523 24.5971 24 24.1 24H7.9C7.40294 24 7 23.5523 7 23Z" fill="#222222"/>
</svg>
