<svg width="20" height="20" viewBox="0 0 20 20" fill="none" xmlns="http://www.w3.org/2000/svg">
<path fill-rule="evenodd" clip-rule="evenodd" d="M2.6218 7.98717C1.51027 7.98717 0.609375 7.08582 0.609375 5.97522V2.62132C0.609375 1.51073 1.51027 0.609375 2.6218 0.609375H17.3796C18.4911 0.609375 19.392 1.51073 19.392 2.62132V5.97522C19.392 7.08582 18.4911 7.98717 17.3796 7.98717V6.53052C18.1611 6.25489 18.7212 5.50845 18.7212 4.63326C18.7212 3.52367 17.8196 2.62132 16.7088 2.62132H3.2926C2.18175 2.62132 1.28018 3.52367 1.28018 4.63326C1.28018 5.50845 1.84031 6.25489 2.6218 6.53052V7.98717Z" fill="#5A89CE"/>
<path fill-rule="evenodd" clip-rule="evenodd" d="M3.96288 5.30434H3.29199C2.92165 5.30434 2.62109 5.00381 2.62109 4.63362C2.62109 4.26343 2.92165 3.96289 3.29199 3.96289H16.7098C17.0801 3.96289 17.3807 4.26343 17.3807 4.63362C17.3807 5.00381 17.0801 5.30434 16.7098 5.30434H16.0389V17.3798C16.0389 18.4911 15.1378 19.392 14.0262 19.392H5.97555C4.86396 19.392 3.96288 18.4911 3.96288 17.3798V5.30434Z" fill="#6EC4F6"/>
<path d="M11.0881 14.693H9.51987V9.52173H9.48319L7.98828 10.4386V9.08162L9.62993 8.05469H11.0881V14.693Z" fill="white"/>
</svg>
