<svg width="32" height="32" viewBox="0 0 32 32" fill="none" xmlns="http://www.w3.org/2000/svg">
<path d="M6.01929 17.3416H31L1 26.2571L6.01929 17.3416Z" fill="white" stroke="#303030" stroke-width="1.6" stroke-linecap="round" stroke-linejoin="round"/>
<path d="M31 17.3415L1.67725 6.59424L6.01929 17.3415H31Z" fill="white" stroke="#303030" stroke-width="1.6" stroke-linecap="round" stroke-linejoin="round"/>
<path d="M25.3521 11.8695C25.3521 13.9598 24.5877 15.8743 23.3175 17.3417H10.6043C9.3341 15.8743 8.5697 13.9598 8.5697 11.8695C8.5697 7.23452 12.326 3.47827 16.9609 3.47827C21.5958 3.47827 25.3521 7.23452 25.3521 11.8695Z" fill="#FFE597" stroke="#303030" stroke-width="1.6" stroke-linecap="round" stroke-linejoin="round"/>
<path d="M5.57349 24.9528V28.5218L17.9667 21.2151L5.57349 24.9528Z" fill="white" stroke="#303030" stroke-width="1.6" stroke-linecap="round" stroke-linejoin="round"/>
<path d="M13.699 8.5603L15.4592 13.8382L16.9609 9.33041L18.4639 13.8382L20.2242 8.5603" fill="#FAE398"/>
<path d="M18.4639 14.3755C18.2324 14.3755 18.0267 14.2269 17.9538 14.0083L16.9608 11.0293L15.9678 14.0083C15.8949 14.2284 15.6892 14.3755 15.4577 14.3755C15.2263 14.3755 15.0205 14.2269 14.9477 14.0083L13.1874 8.73043C13.0931 8.44896 13.246 8.14463 13.5275 8.05033C13.8089 7.95603 14.1133 8.10891 14.2076 8.39038L15.4577 12.1395L16.4507 9.16048C16.5236 8.94045 16.7293 8.79329 16.9608 8.79329C17.1923 8.79329 17.398 8.94188 17.4709 9.16048L18.4639 12.1395L19.7141 8.39038C19.8069 8.10891 20.1113 7.95603 20.3942 8.05033C20.6756 8.14463 20.8271 8.44896 20.7342 8.73043L18.974 14.0083C18.9011 14.2269 18.6953 14.3755 18.4639 14.3755Z" fill="#333333"/>
<path d="M14.5748 11.7751H12.9318C12.6346 11.7751 12.3945 11.5351 12.3945 11.2379C12.3945 10.9407 12.6346 10.7007 12.9318 10.7007H14.5748C14.872 10.7007 15.1121 10.9407 15.1121 11.2379C15.1121 11.5351 14.872 11.7751 14.5748 11.7751Z" fill="#333333"/>
<path d="M20.99 11.7751H19.3469C19.0497 11.7751 18.8097 11.5351 18.8097 11.2379C18.8097 10.9407 19.0497 10.7007 19.3469 10.7007H20.99C21.2872 10.7007 21.5272 10.9407 21.5272 11.2379C21.5272 11.5351 21.2872 11.7751 20.99 11.7751Z" fill="#333333"/>
</svg>
