<svg width="32" height="32" viewBox="0 0 32 32" fill="none" xmlns="http://www.w3.org/2000/svg">
<path fill-rule="evenodd" clip-rule="evenodd" d="M3.14286 1.93799H28.8571C30.0406 1.93799 31 2.89741 31 4.08084V9.97296C31 11.1564 30.0406 12.1158 28.8571 12.1158H3.14286C1.95943 12.1158 1 11.1564 1 9.97296V4.08084C1 2.89741 1.95943 1.93799 3.14286 1.93799Z" fill="#FFE597"/>
<path fill-rule="evenodd" clip-rule="evenodd" d="M27.2493 7.02686V7.56183C26.1837 7.56183 25.1064 8.79685 25.1064 9.70469V27.919C25.1064 29.1024 24.147 30.0618 22.9635 30.0618H20.2356C20.2665 29.9778 20.2857 29.8894 20.2857 29.7936C20.2857 29.4443 20.0602 29.1555 19.7493 29.0435V28.9889C19.7493 28.6927 19.509 28.4539 19.2143 28.4539H18.1428C17.8466 28.4539 17.6079 28.6942 17.6079 28.9889V29.0435C17.2969 29.154 17.0714 29.4443 17.0714 29.7936C17.0714 29.8879 17.0906 29.9778 17.1215 30.0618H12.7356C12.7665 29.9778 12.7857 29.8894 12.7857 29.7936C12.7857 29.4443 12.5602 29.1555 12.2507 29.0435V28.9889C12.2507 28.6927 12.0105 28.4539 11.7143 28.4539H10.6429C10.3466 28.4539 10.1064 28.6942 10.1064 28.9889V29.0435C9.79691 29.154 9.57143 29.4443 9.57143 29.7936C9.57143 29.8879 9.59058 29.9778 9.62153 30.0618H6.89359C5.71016 30.0618 4.75073 29.1024 4.75073 27.919V11.3126C4.75073 8.35324 6.61358 7.02686 9.5729 7.02686H27.2507H27.2493Z" fill="white" stroke="#333333" stroke-width="1.6" stroke-linecap="round" stroke-linejoin="round"/>
<path fill-rule="evenodd" clip-rule="evenodd" d="M14.2536 21.4905H10.5044C10.0608 21.4905 9.70118 21.8501 9.70118 22.2937C9.70118 22.7373 10.0608 23.0969 10.5044 23.0969H14.2536C14.6973 23.0969 15.0568 22.7373 15.0568 22.2937C15.0568 21.8501 14.6973 21.4905 14.2536 21.4905ZM19.0743 17.7412H10.5029C10.0593 17.7412 9.69971 18.1008 9.69971 18.5444C9.69971 18.988 10.0593 19.3476 10.5029 19.3476H19.0743C19.5179 19.3476 19.8775 18.988 19.8775 18.5444C19.8775 18.1008 19.5179 17.7412 19.0743 17.7412ZM10.5029 15.5984H19.0743C19.5179 15.5984 19.8775 15.2388 19.8775 14.7951C19.8775 14.3515 19.5179 13.9919 19.0743 13.9919H10.5029C10.0593 13.9919 9.69971 14.3515 9.69971 14.7951C9.69971 15.2388 10.0593 15.5984 10.5029 15.5984Z" fill="#333333"/>
</svg>
