<svg width="20" height="20" viewBox="0 0 20 20" fill="none" xmlns="http://www.w3.org/2000/svg">
<path fill-rule="evenodd" clip-rule="evenodd" d="M15.49 15.5272C14.7698 16.051 13.8833 16.3599 12.9262 16.3599C10.5166 16.3599 8.56055 14.4035 8.56055 11.9944C8.56055 9.58533 10.5166 7.62891 12.9262 7.62891C15.3348 7.62891 17.2908 9.58533 17.2908 11.9944C17.2908 12.9524 16.9823 13.8385 16.4582 14.5582L19.1447 17.2453C19.4114 17.5124 19.4114 17.9465 19.1447 18.2136C18.8771 18.4807 18.4431 18.4807 18.1764 18.2136L15.49 15.5272Z" fill="#2E63BD"/>
<path fill-rule="evenodd" clip-rule="evenodd" d="M14.553 17.4947V17.7289C14.553 18.8636 13.6331 19.7833 12.4985 19.7833H2.2284C1.09378 19.7833 0.173828 18.8636 0.173828 17.7289V2.66372C0.173828 1.52904 1.09378 0.609375 2.2284 0.609375H12.4985C13.6331 0.609375 14.553 1.52904 14.553 2.66372V6.49302C14.0373 6.34032 13.4918 6.25883 12.9269 6.25883C9.76183 6.25883 7.19245 8.82882 7.19245 11.9939C7.19245 15.159 9.76183 17.7289 12.9269 17.7289C13.4918 17.7289 14.0373 17.6475 14.553 17.4947ZM2.2284 11.5659H5.30886C5.68707 11.5659 5.99372 11.2591 5.99372 10.8811C5.99372 10.5031 5.68707 10.1963 5.30886 10.1963H2.2284C1.85019 10.1963 1.54354 10.5031 1.54354 10.8811C1.54354 11.2591 1.85019 11.5659 2.2284 11.5659ZM2.2284 4.71807H9.75997C10.1382 4.71807 10.4448 4.41129 10.4448 4.03329C10.4448 3.65529 10.1382 3.34851 9.75997 3.34851H2.2284C1.85019 3.34851 1.54354 3.65529 1.54354 4.03329C1.54354 4.41129 1.85019 4.71807 2.2284 4.71807ZM2.2284 8.14198H7.02147C7.39875 8.14198 7.7054 7.8352 7.7054 7.4572C7.7054 7.0792 7.39875 6.77242 7.02147 6.77242H2.2284C1.85019 6.77242 1.54354 7.0792 1.54354 7.4572C1.54354 7.8352 1.85019 8.14198 2.2284 8.14198ZM2.2284 14.9898H5.65176C6.02996 14.9898 6.33661 14.683 6.33661 14.305C6.33661 13.927 6.02996 13.6202 5.65176 13.6202H2.2284C1.85019 13.6202 1.54354 13.927 1.54354 14.305C1.54354 14.683 1.85019 14.9898 2.2284 14.9898Z" fill="#B9D3FF"/>
<path fill-rule="evenodd" clip-rule="evenodd" d="M2.22783 11.565H5.30829C5.6865 11.565 5.99315 11.2583 5.99315 10.8803C5.99315 10.5023 5.6865 10.1955 5.30829 10.1955H2.22783C1.84962 10.1955 1.54297 10.5023 1.54297 10.8803C1.54297 11.2583 1.84962 11.565 2.22783 11.565ZM2.22783 4.71722H9.7594C10.1376 4.71722 10.4443 4.41044 10.4443 4.03244C10.4443 3.65444 10.1376 3.34766 9.7594 3.34766H2.22783C1.84962 3.34766 1.54297 3.65444 1.54297 4.03244C1.54297 4.41044 1.84962 4.71722 2.22783 4.71722ZM2.22783 8.14113H7.0209C7.39817 8.14113 7.70483 7.83435 7.70483 7.45635C7.70483 7.07835 7.39817 6.77157 7.0209 6.77157H2.22783C1.84962 6.77157 1.54297 7.07835 1.54297 7.45635C1.54297 7.83435 1.84962 8.14113 2.22783 8.14113ZM2.22783 14.989H5.65118C6.02939 14.989 6.33604 14.6822 6.33604 14.3042C6.33604 13.9262 6.02939 13.6194 5.65118 13.6194H2.22783C1.84962 13.6194 1.54297 13.9262 1.54297 14.3042C1.54297 14.6822 1.84962 14.989 2.22783 14.989Z" fill="#5490F3"/>
</svg>
