<svg width="20" height="16" viewBox="0 0 20 16" fill="none" xmlns="http://www.w3.org/2000/svg">
<path fill-rule="evenodd" clip-rule="evenodd" d="M3.4668 2.13128C3.56755 1.84504 3.73138 1.58209 3.95077 1.36364C4.33587 0.978109 4.85845 0.761719 5.40362 0.761719H17.7288C18.274 0.761719 18.7966 0.978109 19.1817 1.36364C19.5668 1.74849 19.7834 2.27098 19.7834 2.81607V11.0335C19.7834 11.5785 19.5668 12.101 19.1817 12.4859C18.9633 12.705 18.7006 12.8694 18.4143 12.97V5.5552C18.4143 4.64718 18.0537 3.77613 17.4115 3.1338C16.7694 2.49216 15.8984 2.13128 14.9898 2.13128H3.4668Z" fill="#B17118"/>
<path fill-rule="evenodd" clip-rule="evenodd" d="M0.609375 6.23913V5.55435C0.609375 5.00926 0.825937 4.48677 1.21104 4.10192C1.59615 3.71639 2.11872 3.5 2.66389 3.5H14.9891C15.5343 3.5 16.0569 3.71639 16.442 4.10192C16.8271 4.48677 17.0436 5.00926 17.0436 5.55435V6.23913H0.609375ZM17.0436 7.6087V13.7717C17.0436 14.3168 16.8271 14.8393 16.442 15.2242C16.0569 15.6097 15.5343 15.8261 14.9891 15.8261H2.66389C2.11872 15.8261 1.59615 15.6097 1.21104 15.2242C0.825937 14.8393 0.609375 14.3168 0.609375 13.7717V7.6087H17.0436ZM4.03294 11.0326H6.77199C7.1505 11.0326 7.45651 10.7258 7.45651 10.3478C7.45651 9.96983 7.1505 9.66304 6.77199 9.66304H4.03294C3.65537 9.66304 3.34842 9.96983 3.34842 10.3478C3.34842 10.7258 3.65537 11.0326 4.03294 11.0326Z" fill="#FFB639"/>
</svg>
