<svg width="24" height="24" viewBox="0 0 24 24" fill="none" xmlns="http://www.w3.org/2000/svg">
<circle cx="12" cy="12" r="12" fill="white"/>
<path fill-rule="evenodd" clip-rule="evenodd" d="M13.8435 5.32148L16.7916 10.4266C17.0467 10.8684 17.0602 11.4096 16.8268 11.8632C16.5938 12.3165 16.1458 12.6206 15.6386 12.6701L11.3863 13.0831C11.3153 13.0902 11.2466 13.1122 11.1847 13.1479L9.20715 14.2897C8.25065 14.8419 7.02726 14.5141 6.47465 13.5572L5.9744 12.6909C5.42179 11.734 5.7494 10.5107 6.7059 9.95841L8.6834 8.81666C8.74532 8.78091 8.7987 8.73238 8.84032 8.67447L11.3238 5.19843C11.6202 4.78394 12.1075 4.54802 12.6167 4.57285C13.1262 4.59744 13.5883 4.8797 13.8435 5.32148Z" fill="#FFA008"/>
<path fill-rule="evenodd" clip-rule="evenodd" d="M12.4952 14.0098L13.0576 14.9843C13.2562 15.3285 14.3101 16.7379 14.207 17.1224C14.1039 17.5069 13.8525 17.8345 13.5082 18.0332L13.0747 18.283C12.7304 18.4821 12.3209 18.5359 11.9364 18.4328C11.5525 18.3299 11.2244 18.0783 11.0258 17.7336L9.2552 15.3984C9.40938 15.3408 9.5615 15.2698 9.70911 15.1846L11.5932 14.0972L12.4952 14.0098Z" fill="#FF730A"/>
</svg>
