<svg width="16" height="16" viewBox="0 0 16 16" fill="none" xmlns="http://www.w3.org/2000/svg">
<rect width="16" height="16" rx="8" fill="#444444"/>
<path d="M9.30923 4.0972L9.35221 4.13514L11.8669 6.64923C11.944 6.7267 11.9908 6.82921 11.9988 6.93818C12.0068 7.04716 11.9754 7.15539 11.9105 7.24326C11.8455 7.33114 11.7512 7.39284 11.6447 7.4172C11.5382 7.44156 11.4264 7.42695 11.3297 7.37603L9.87939 8.82552L9.22831 10.5612C9.21116 10.607 9.18677 10.6497 9.15606 10.6878L9.12406 10.7244L8.43822 11.41C8.35944 11.4886 8.25466 11.5358 8.14354 11.5427C8.03242 11.5496 7.92261 11.5158 7.83469 11.4475L7.79125 11.4096L6.51423 10.1333L4.77998 11.8667C4.6977 11.9486 4.58729 11.9962 4.47118 11.9998C4.35507 12.0033 4.24196 11.9626 4.15483 11.8857C4.0677 11.8089 4.01308 11.7019 4.00206 11.5862C3.99105 11.4706 4.02446 11.3552 4.09552 11.2633L4.13347 11.2203L5.86726 9.4865L4.59069 8.2098C4.51197 8.13109 4.46468 8.02636 4.45769 7.91528C4.4507 7.80419 4.4845 7.69437 4.55274 7.60642L4.59069 7.56345L5.27653 6.87779C5.31102 6.84317 5.35085 6.81431 5.39449 6.79231L5.4393 6.77311L7.17492 6.12173L8.62477 4.67269C8.57533 4.58028 8.55916 4.47369 8.57895 4.37078C8.59875 4.26786 8.65332 4.17487 8.73352 4.10739C8.81372 4.0399 8.91468 4.00202 9.01949 4.00008C9.1243 3.99814 9.22659 4.03272 9.30923 4.0972Z" fill="white"/>
</svg>
