<svg width="32" height="32" viewBox="0 0 32 32" fill="none" xmlns="http://www.w3.org/2000/svg">
<path d="M14.3266 20.5712C15.1467 20.5712 15.9587 20.4097 16.7163 20.0958C17.4739 19.782 18.1623 19.3221 18.7422 18.7422C19.3221 18.1623 19.782 17.4739 20.0959 16.7163C20.4097 15.9587 20.5712 15.1467 20.5712 14.3266C20.5712 13.5066 20.4097 12.6946 20.0959 11.9369C19.782 11.1793 19.3221 10.4909 18.7422 9.91104C18.1623 9.33118 17.4739 8.87121 16.7163 8.55739C15.9587 8.24357 15.1467 8.08205 14.3266 8.08205C12.6705 8.08205 11.0821 8.73996 9.91104 9.91104C8.73996 11.0821 8.08205 12.6705 8.08205 14.3266C8.08205 15.9828 8.73996 17.5711 9.91104 18.7422C11.0821 19.9133 12.6705 20.5712 14.3266 20.5712ZM20.9042 19.4326L25.6828 24.2112C25.7821 24.3072 25.8613 24.4221 25.9158 24.5491C25.9703 24.6762 25.9989 24.8127 26 24.9509C26.0011 25.0891 25.9746 25.2262 25.9222 25.354C25.8698 25.4819 25.7924 25.598 25.6946 25.6957C25.5969 25.7933 25.4806 25.8705 25.3527 25.9228C25.2247 25.975 25.0877 26.0013 24.9495 26C24.8113 25.9987 24.6747 25.9699 24.5478 25.9152C24.4209 25.8606 24.3061 25.7812 24.2101 25.6818L19.4316 20.9032C17.7585 22.2019 15.6534 22.8142 13.5448 22.6154C11.4361 22.4167 9.48251 21.4218 8.08158 19.8334C6.68066 18.2449 5.93775 16.1822 6.00409 14.0653C6.07043 11.9484 6.94103 9.93629 8.43866 8.43866C9.9363 6.94103 11.9484 6.07043 14.0653 6.00409C16.1823 5.93775 18.2449 6.68066 19.8334 8.08158C21.4218 9.4825 22.4167 11.4361 22.6155 13.5447C22.8142 15.6534 22.2019 17.7585 20.9032 19.4316L20.9042 19.4326Z" fill="#333333"/>
</svg>
