<svg width="36" height="36" viewBox="0 0 36 36" fill="none" xmlns="http://www.w3.org/2000/svg">
<mask id="path-1-inside-1_341_792" fill="white">
<path d="M8 15C8 14.4477 8.44772 14 9 14H27C27.5523 14 28 14.4477 28 15V25C28 26.6569 26.6569 28 25 28H11C9.34315 28 8 26.6569 8 25V15Z"/>
</mask>
<path d="M8 15C8 14.4477 8.44772 14 9 14H27C27.5523 14 28 14.4477 28 15V25C28 26.6569 26.6569 28 25 28H11C9.34315 28 8 26.6569 8 25V15Z" stroke="#333333" stroke-width="4" mask="url(#path-1-inside-1_341_792)"/>
<path d="M22 14C22 13.3971 22 12.6897 22 12C22 10.3431 20.6569 9 19 9H17C15.3431 9 14 10.3435 14 12.0004C14 13.1187 14 14 14 14" stroke="#333333" stroke-width="2"/>
</svg>
