<svg width="18" height="18" viewBox="0 0 18 18" fill="none" xmlns="http://www.w3.org/2000/svg">
<path fill-rule="evenodd" clip-rule="evenodd" d="M0 14.3762V6.65462C0 6.2156 0.203141 5.79477 0.56507 5.48481C0.926356 5.17429 1.41686 5 1.92857 5H6.09814C6.85992 5 7.60435 5.19359 8.23757 5.55595L8.35714 5.62379V15L8.23757 14.9322C7.60435 14.5698 6.85992 14.3762 6.09814 14.3762H0ZM9.64286 5.62379L9.76243 5.55595C10.3956 5.19359 11.1401 5 11.9019 5H16.0714C16.5831 5 17.0736 5.17429 17.4349 5.48481C17.7969 5.79477 18 6.2156 18 6.65462V14.3762H11.9019C11.1401 14.3762 10.3956 14.5698 9.76243 14.9322L9.64286 15V5.62379Z" fill="#9BDA7E"/>
<path fill-rule="evenodd" clip-rule="evenodd" d="M18 15V16.2C18 16.6776 17.7969 17.1354 17.4349 17.4726C17.0736 17.8104 16.5831 18 16.0714 18H9.64286V15.921L10.4754 15.4032C10.8977 15.1404 11.394 15 11.9019 15H18ZM8.35714 18H1.92857C0.863357 18 0 17.1942 0 16.2V15H6.09814C6.606 15 7.10228 15.1404 7.52463 15.4032L8.35714 15.921V18Z" fill="#609A45"/>
<path fill-rule="evenodd" clip-rule="evenodd" d="M9 0C12.3113 0 15 2.68865 15 5.99996C15 9.31126 12.3113 11.9999 9 11.9999C5.68867 11.9999 3 9.31126 3 5.99996C3 2.68865 5.68867 0 9 0ZM6.29266 7.68128C6.752 8.43194 7.78067 8.99993 9 8.99993C10.2193 8.99993 11.248 8.43194 11.7073 7.68128C11.8993 7.36795 11.8007 6.95662 11.4873 6.76462C11.1733 6.57262 10.7627 6.67128 10.5707 6.98528C10.3093 7.41194 9.69333 7.66661 9 7.66661C8.30667 7.66661 7.69066 7.41194 7.42933 6.98528C7.23733 6.67128 6.82666 6.57262 6.51266 6.76462C6.19933 6.95662 6.10066 7.36795 6.29266 7.68128ZM7 3.99997C6.632 3.99997 6.33333 4.29863 6.33333 4.66663C6.33333 5.03463 6.632 5.33329 7 5.33329C7.368 5.33329 7.66667 5.03463 7.66667 4.66663C7.66667 4.29863 7.368 3.99997 7 3.99997ZM11 3.99997C10.632 3.99997 10.3333 4.29863 10.3333 4.66663C10.3333 5.03463 10.632 5.33329 11 5.33329C11.368 5.33329 11.6667 5.03463 11.6667 4.66663C11.6667 4.29863 11.368 3.99997 11 3.99997Z" fill="#FFD23E"/>
<path fill-rule="evenodd" clip-rule="evenodd" d="M6.29214 7.68082C6.75148 8.43148 7.78015 8.99947 8.99948 8.99947C10.2188 8.99947 11.2475 8.43148 11.7068 7.68082C11.8988 7.36749 11.8001 6.95616 11.4868 6.76416C11.1728 6.57216 10.7621 6.67082 10.5701 6.98482C10.3088 7.41148 9.69281 7.66615 8.99948 7.66615C8.30615 7.66615 7.69014 7.41148 7.42881 6.98482C7.23681 6.67082 6.82614 6.57216 6.51214 6.76416C6.19881 6.95616 6.10014 7.36749 6.29214 7.68082ZM6.99948 3.99951C6.63148 3.99951 6.33281 4.29818 6.33281 4.66617C6.33281 5.03417 6.63148 5.33283 6.99948 5.33283C7.36748 5.33283 7.66615 5.03417 7.66615 4.66617C7.66615 4.29818 7.36748 3.99951 6.99948 3.99951ZM10.9995 3.99951C10.6315 3.99951 10.3328 4.29818 10.3328 4.66617C10.3328 5.03417 10.6315 5.33283 10.9995 5.33283C11.3675 5.33283 11.6661 5.03417 11.6661 4.66617C11.6661 4.29818 11.3675 3.99951 10.9995 3.99951Z" fill="#836400"/>
</svg>
