<svg width="36" height="36" viewBox="0 0 36 36" fill="none" xmlns="http://www.w3.org/2000/svg">
<path fill-rule="evenodd" clip-rule="evenodd" d="M5 22.4583V11.375C5 10.7448 5.25463 10.1408 5.7083 9.69588C6.16116 9.25017 6.77599 9 7.41741 9H12.6438C13.5987 9 14.5318 9.27787 15.3256 9.798L15.4754 9.89538V23.3537L15.3256 23.2563C14.5318 22.7362 13.5987 22.4583 12.6438 22.4583H5ZM17.0871 9.89538L17.2369 9.798C18.0307 9.27787 18.9638 9 19.9187 9H25.1451C25.7865 9 26.4013 9.25017 26.8542 9.69588C27.3079 10.1408 27.5625 10.7448 27.5625 11.375V22.4583H19.9187C18.9638 22.4583 18.0307 22.7362 17.2369 23.2563L17.0871 23.3537V9.89538Z" fill="#9BDA7E"/>
<path fill-rule="evenodd" clip-rule="evenodd" d="M27.5625 24.0417V25.6251C27.5625 26.2552 27.3079 26.8593 26.8542 27.3042C26.4013 27.7499 25.7865 28.0001 25.1451 28.0001H17.0871V25.257L18.1306 24.5737C18.66 24.227 19.2821 24.0417 19.9187 24.0417H27.5625ZM15.4754 28.0001H7.41741C6.08219 28.0001 5 26.9369 5 25.6251V24.0417H12.6438C13.2804 24.0417 13.9025 24.227 14.4319 24.5737L15.4754 25.257V28.0001Z" fill="#609A45"/>
<path fill-rule="evenodd" clip-rule="evenodd" d="M25.5625 4C29.4257 4 32.5625 7.13678 32.5625 11C32.5625 14.8632 29.4257 18 25.5625 18C21.6993 18 18.5625 14.8632 18.5625 11C18.5625 7.13678 21.6993 4 25.5625 4ZM22.4039 12.9616C22.9398 13.8373 24.1399 14.5 25.5625 14.5C26.9851 14.5 28.1852 13.8373 28.7211 12.9616C28.9451 12.596 28.8299 12.1161 28.4644 11.8921C28.0981 11.6681 27.6189 11.7832 27.3949 12.1496C27.0901 12.6473 26.3714 12.9444 25.5625 12.9444C24.7536 12.9444 24.0349 12.6473 23.7301 12.1496C23.5061 11.7832 23.0269 11.6681 22.6606 11.8921C22.2951 12.1161 22.1799 12.596 22.4039 12.9616ZM23.2292 8.66667C22.7998 8.66667 22.4514 9.01511 22.4514 9.44444C22.4514 9.87378 22.7998 10.2222 23.2292 10.2222C23.6585 10.2222 24.0069 9.87378 24.0069 9.44444C24.0069 9.01511 23.6585 8.66667 23.2292 8.66667ZM27.8958 8.66667C27.4665 8.66667 27.1181 9.01511 27.1181 9.44444C27.1181 9.87378 27.4665 10.2222 27.8958 10.2222C28.3252 10.2222 28.6736 9.87378 28.6736 9.44444C28.6736 9.01511 28.3252 8.66667 27.8958 8.66667Z" fill="#FFD23E"/>
<path fill-rule="evenodd" clip-rule="evenodd" d="M22.4039 12.9616C22.9398 13.8374 24.1399 14.5001 25.5625 14.5001C26.9851 14.5001 28.1852 13.8374 28.7211 12.9616C28.9451 12.5961 28.8299 12.1162 28.4644 11.8922C28.0981 11.6682 27.6189 11.7833 27.3949 12.1496C27.0901 12.6474 26.3714 12.9445 25.5625 12.9445C24.7536 12.9445 24.0349 12.6474 23.7301 12.1496C23.5061 11.7833 23.0269 11.6682 22.6606 11.8922C22.2951 12.1162 22.1799 12.5961 22.4039 12.9616ZM23.2292 8.66675C22.7998 8.66675 22.4514 9.01519 22.4514 9.44453C22.4514 9.87386 22.7998 10.2223 23.2292 10.2223C23.6585 10.2223 24.0069 9.87386 24.0069 9.44453C24.0069 9.01519 23.6585 8.66675 23.2292 8.66675ZM27.8958 8.66675C27.4665 8.66675 27.1181 9.01519 27.1181 9.44453C27.1181 9.87386 27.4665 10.2223 27.8958 10.2223C28.3252 10.2223 28.6736 9.87386 28.6736 9.44453C28.6736 9.01519 28.3252 8.66675 27.8958 8.66675Z" fill="#836400"/>
</svg>
