<svg width="18" height="16" viewBox="0 0 18 16" fill="none" xmlns="http://www.w3.org/2000/svg">
<path d="M17.4245 5H0.575487C-0.00718054 5 -0.219691 4.04592 0.279868 3.67326L0.716901 3.34719C1.46059 2.79233 1.91561 1.79271 1.91561 0.714309C1.91561 0.319776 2.17286 0 2.4901 0H15.5097C15.827 0 16.0842 0.319856 16.0842 0.714309C16.0842 1.79288 16.5394 2.79233 17.2831 3.34727L17.7201 3.67326C18.2197 4.046 18.0072 5 17.4245 5Z" fill="#2E63BD"/>
<path d="M6.95386 5V8H5.01538V5H6.95386Z" fill="#6EC4F6"/>
<path d="M9.96924 5V8H8.03076V5H9.96924Z" fill="#6EC4F6"/>
<path d="M3.93848 5V8H2V5H3.93848Z" fill="#6EC4F6"/>
<path d="M12.9846 5V8H11.0461V5H12.9846Z" fill="#6EC4F6"/>
<path d="M16 5V8H14.0615V5H16Z" fill="#6EC4F6"/>
<path d="M16.4893 7.21704C16.7713 7.21704 16.9999 7.4457 16.9999 7.72769V9.25959H1V7.72769C1 7.44565 1.22866 7.21704 1.51065 7.21704H16.4893Z" fill="#6EC4F6"/>
<path d="M1 10H5.42554V16H1V10Z" fill="#6EC4F6"/>
<path d="M17 10V16H12.5745V10H17Z" fill="#6EC4F6"/>
</svg>
